<svg width="27" height="22" viewBox="0 0 27 22" fill="none" xmlns="http://www.w3.org/2000/svg">
<path d="M25.9091 0H1.09091C0.488417 0 0 0.488417 0 1.09091C0 1.6934 0.488418 2.18182 1.09091 2.18182H25.9091C26.5116 2.18182 27 1.6934 27 1.09091C27 0.488417 26.5116 0 25.9091 0Z" fill="black"/>
<path d="M25.9091 9.81818H1.09091C0.488417 9.81818 0 10.3066 0 10.9091C0 11.5116 0.488418 12 1.09091 12H25.9091C26.5116 12 27 11.5116 27 10.9091C27 10.3066 26.5116 9.81818 25.9091 9.81818Z" fill="black"/>
<path d="M25.9091 19.6364H1.09091C0.488417 19.6364 0 20.1248 0 20.7273C0 21.3298 0.488418 21.8182 1.09091 21.8182H25.9091C26.5116 21.8182 27 21.3298 27 20.7273C27 20.1248 26.5116 19.6364 25.9091 19.6364Z" fill="black"/>
</svg>
